# File created by Blade
# Date/Time:  Thu Jan 22 19:18:24 2015
#---------------------------------------------------------
:version 1.10
:name HOM
:units
  mass 1.0
  length 1.000000
  angle deg
:documentation
     Acclaim Skeleton File
:root
   axis xyz
   order TX TY TZ RX RY RZ
   position 0.000000 0.000000 0.000000
   orientation 0 0 0
:bonedata
   begin
      id 1
      name RightUpLeg_dum
      direction -1.000000 0.000000 0.000000
      length 4.478084
      axis 0.0 0.0 0.0 xyz
   end
   begin
      id 2
      name LeftUpLeg_dum
      direction 1.000000 0.000000 0.000000
      length 4.478084
      axis 0.0 0.0 0.0 xyz
   end
   begin
      id 3
      name Spine_dum
      direction 0.000000 1.000000 0.000000
      length 6.068208
      axis 0.0 0.0 0.0 xyz
   end
   begin
      id 4
      name RightUpLeg
      direction 0.000000 -1.000000 0.000000
      length 16.405774
      axis 0.0 0.0 0.0 xyz
      dof rx ry rz
   end
   begin
      id 5
      name RightLeg
      direction 0.000000 -1.000000 0.000000
      length 14.644143
      axis 0.0 0.0 0.0 xyz
      dof rx ry rz
   end
   begin
      id 6
      name RightFoot
      direction 0.000000 -0.258819 0.965926
      length 5.806150
      axis 15.0 0.0 0.0 xyz
      dof rx ry rz
   end
   begin
      id 7
      name RightToeBase
      direction 0.000000 0.000000 1.000000
      length 2.952750
      axis 0.0 0.0 0.0 xyz
      dof rx ry rz
   end
   begin
      id 8
      name LeftUpLeg
      direction 0.000000 -1.000000 0.000000
      length 16.405774
      axis 0.0 0.0 0.0 xyz
      dof rx ry rz
   end
   begin
      id 9
      name LeftLeg
      direction 0.000000 -1.000000 0.000000
      length 14.644143
      axis 0.0 0.0 0.0 xyz
      dof rx ry rz
   end
   begin
      id 10
      name LeftFoot
      direction 0.000000 -0.258819 0.965926
      length 5.806150
      axis 15.0 0.0 0.0 xyz
      dof rx ry rz
   end
   begin
      id 11
      name LeftToeBase
      direction 0.000000 0.000000 1.000000
      length 2.952750
      axis 0.0 0.0 0.0 xyz
      dof rx ry rz
   end
   begin
      id 12
      name Spine
      direction 0.000000 1.000000 0.000000
      length 0.000000
      axis 0.0 0.0 0.0 xyz
      dof rx ry rz
   end
   begin
      id 13
      name Spine_dum1
      direction 0.000000 1.000000 0.000000
      length 10.013923
      axis 0.0 0.0 0.0 xyz
   end
   begin
      id 14
      name Spine_dum2
      direction 0.000000 1.000000 0.000000
      length 10.013923
      axis 0.0 0.0 0.0 xyz
   end
   begin
      id 15
      name Spine_dum3
      direction 0.000000 1.000000 0.000000
      length 15.777476
      axis 0.0 0.0 0.0 xyz
   end
   begin
      id 16
      name RightShoulder
      direction -1.000000 0.000000 0.000000
      length 7.190220
      axis 0.0 0.0 90.0 xyz
      dof rx ry rz
   end
   begin
      id 17
      name RightArm
      direction -1.000000 0.000000 0.000000
      length 10.177469
      axis 0.0 0.0 90.0 xyz
      dof rx ry rz
   end
   begin
      id 18
      name RightForeArm
      direction -1.000000 0.000000 0.000000
      length 8.392114
      axis 0.0 0.0 90.0 xyz
      dof ry rz rx
   end
   begin
      id 19
      name RightHand
      direction -1.000000 0.000000 0.000000
      length 0.000000
      axis 0.0 0.0 90.0 xyz
      dof rx ry rz
   end
   begin
      id 20
      name RightHand_dum1
      direction -1.000000 0.000000 0.000000
      length 3.937000
      axis 0.0 0.0 90.0 xyz
   end
   begin
      id 21
      name RightHand_dum2
      direction 0.000000 0.000000 0.000000
      length 0.000000
      axis 0.0 0.0 90.0 xyz
   end
   begin
      id 22
      name RightHandThumb1
      direction 0.000000 0.000000 1.000000
      length 3.937000
      axis 0.0 0.0 90.0 xyz
      dof rx rz ry
   end
   begin
      id 23
      name LeftShoulder
      direction 1.000000 0.000000 0.000000
      length 7.190220
      axis 0.0 0.0 -90.0 xyz
      dof rx ry rz
   end
   begin
      id 24
      name LeftArm
      direction 1.000000 0.000000 0.000000
      length 10.177469
      axis 0.0 0.0 -90.0 xyz
      dof rx ry rz
   end
   begin
      id 25
      name LeftForeArm
      direction 1.000000 0.000000 0.000000
      length 8.392114
      axis 0.0 0.0 -90.0 xyz
      dof ry rz rx
   end
   begin
      id 26
      name LeftHand
      direction 1.000000 0.000000 0.000000
      length 0.000000
      axis 0.0 0.0 -90.0 xyz
      dof rx ry rz
   end
   begin
      id 27
      name LeftHand_dum1
      direction 1.000000 0.000000 0.000000
      length 3.937000
      axis 0.0 0.0 -90.0 xyz
   end
   begin
      id 28
      name LeftHand_dum2
      direction 0.000000 0.000000 0.000000
      length 0.000000
      axis 0.0 0.0 -90.0 xyz
   end
   begin
      id 29
      name LeftHandThumb1
      direction 0.000000 0.000000 1.000000
      length 3.937000
      axis 0.0 0.0 -90.0 xyz
      dof rx rz ry
   end
   begin
      id 30
      name Head
      direction 0.000000 1.000000 0.000000
      length 4.527550
      axis 0.0 0.0 0.0 xyz
      dof rx ry rz
   end
:hierarchy
   begin
      root RightUpLeg_dum LeftUpLeg_dum Spine_dum
      RightUpLeg_dum RightUpLeg
      LeftUpLeg_dum LeftUpLeg
      Spine_dum Spine
      RightUpLeg RightLeg
      RightLeg RightFoot
      RightFoot RightToeBase
      LeftUpLeg LeftLeg
      LeftLeg LeftFoot
      LeftFoot LeftToeBase
      Spine Spine_dum1 Spine_dum2 Spine_dum3
      Spine_dum1 RightShoulder
      Spine_dum2 LeftShoulder
      Spine_dum3 Head
      RightShoulder RightArm
      RightArm RightForeArm
      RightForeArm RightHand
      RightHand RightHand_dum1 RightHand_dum2
      RightHand_dum2 RightHandThumb1
      LeftShoulder LeftArm
      LeftArm LeftForeArm
      LeftForeArm LeftHand
      LeftHand LeftHand_dum1 LeftHand_dum2
      LeftHand_dum2 LeftHandThumb1
   end

# File created by Blade
# Date/Time:  Thu Jan 22 19:18:16 2015
# Frame Rate: 120.000 fps
#------------------------------------------------------
:FULLY-SPECIFIED
:DEGREES
53
root -1.335636 33.051433 -0.669190 8.078428 -3.066845 2.288177
RightUpLeg -2.484293 -8.489030 -4.696876
RightLeg -0.413223 -0.000000 0.000000
RightFoot -10.555781 -3.099588 6.330882
RightToeBase 6.222888 -0.000000 -0.000000
LeftUpLeg -2.165378 7.086157 4.920582
LeftLeg 1.369733 -0.000000 -0.000000
LeftFoot -9.400762 0.753527 -20.135147
LeftToeBase 8.389493 -0.000000 -0.000000
Spine -8.995721 -2.516360 -1.653694
RightShoulder -18.626043 -10.570601 -25.547838
RightArm 23.968935 27.414825 39.821132
RightForeArm -15.622749 0.000000 10.091997
RightHand 10.908668 -0.000000 9.386279
RightHandThumb1 -24.326973 -0.000000 -32.862282
LeftShoulder -23.676872 5.606844 30.492317
LeftArm 16.465364 -28.920754 -34.290693
LeftForeArm 25.246696 0.000000 0.738814
LeftHand -2.337277 0.000000 -9.367706
LeftHandThumb1 -26.253704 0.000000 33.147579
Head -2.181686 3.268065 2.263718
54
root -1.333953 33.051264 -0.667320 8.066907 -3.075439 2.294845
RightUpLeg -2.475239 -8.478501 -4.707983
RightLeg -0.406671 -0.000000 0.000000
RightFoot -10.561796 -3.109947 6.336419
RightToeBase 6.191449 -0.000000 -0.000000
LeftUpLeg -2.150860 7.098367 4.912521
LeftLeg 1.373693 -0.000000 -0.000000
LeftFoot -9.398551 0.742042 -20.131367
LeftToeBase 8.400817 -0.000000 -0.000000
Spine -8.992014 -2.520753 -1.653442
RightShoulder -18.630243 -10.595666 -25.550084
RightArm 23.973717 27.422693 39.816256
RightForeArm -15.585152 -0.000000 10.107447
RightHand 10.916423 -0.000000 9.548382
RightHandThumb1 -24.326973 -0.000000 -32.862282
LeftShoulder -23.682738 5.611239 30.499047
LeftArm 16.450274 -28.910071 -34.276626
LeftForeArm 25.261495 -0.000000 0.752929
LeftHand -2.311750 -0.000000 -9.412402
LeftHandThumb1 -26.253704 0.000000 33.147579
Head -2.164719 3.265481 2.239464
55
root -1.332065 33.050941 -0.664888 8.050845 -3.084475 2.297764
RightUpLeg -2.458621 -8.481423 -4.717963
RightLeg -0.401315 -0.000000 0.000000
RightFoot -10.564664 -3.094096 6.343210
RightToeBase 6.204144 -0.000000 -0.000000
LeftUpLeg -2.130566 7.104837 4.907986
LeftLeg 1.378126 -0.000000 -0.000000
LeftFoot -9.405275 0.739205 -20.135985
LeftToeBase 8.394720 -0.000000 -0.000000
Spine -8.983849 -2.530720 -1.638587
RightShoulder -18.606678 -10.552632 -25.568904
RightArm 23.923025 27.388413 39.753263
RightForeArm -15.635574 0.000000 10.110663
RightHand 11.204705 -0.000000 9.416469
RightHandThumb1 -24.326973 -0.000000 -32.862282
LeftShoulder -23.689174 5.611722 30.493383
LeftArm 16.437039 -28.871304 -34.247492
LeftForeArm 25.251604 -0.000000 0.725000
LeftHand -2.296634 -0.000000 -9.406233
LeftHandThumb1 -26.253704 0.000000 33.147579
Head -2.146511 3.293375 2.196134
56
root -1.332536 33.050899 -0.663609 8.048626 -3.093164 2.285315
RightUpLeg -2.461490 -8.471171 -4.706712
RightLeg -0.388463 -0.000000 0.000000
RightFoot -10.574103 -3.097466 6.333866
RightToeBase 6.218352 -0.000000 -0.000000
LeftUpLeg -2.129802 7.097218 4.921849
LeftLeg 1.392869 -0.000000 -0.000000
LeftFoot -9.429822 0.744015 -20.153236
LeftToeBase 8.411404 -0.000000 -0.000000
Spine -8.990021 -2.528532 -1.615323
RightShoulder -18.603162 -10.556760 -25.580442
RightArm 23.906996 27.371794 39.727189
RightForeArm -15.597639 -0.000000 10.105147
RightHand 11.312871 -0.000000 9.505071
RightHandThumb1 -24.326973 -0.000000 -32.862282
LeftShoulder -23.690862 5.635608 30.488259
LeftArm 16.440368 -28.867368 -34.244914
LeftForeArm 25.253938 -0.000000 0.718804
LeftHand -2.319008 -0.000000 -9.375676
LeftHandThumb1 -26.253704 0.000000 33.147579
Head -2.127504 3.309168 2.164322
57
root -1.327304 33.050260 -0.661722 8.034868 -3.106202 2.307664
RightUpLeg -2.450352 -8.455022 -4.739002
RightLeg -0.386611 -0.000000 0.000000
RightFoot -10.591587 -3.121298 6.323423
RightToeBase 6.221296 -0.000000 -0.000000
LeftUpLeg -2.109610 7.091169 4.890475
LeftLeg 1.386532 -0.000000 -0.000000
LeftFoot -9.426314 0.768631 -20.123603
LeftToeBase 8.372541 -0.000000 -0.000000
Spine -8.981665 -2.516537 -1.622246
RightShoulder -18.611563 -10.563328 -25.595729
RightArm 23.889327 27.362100 39.706278
RightForeArm -15.571810 -0.000000 10.136944
RightHand 11.282236 -0.000000 9.516311
RightHandThumb1 -24.326973 -0.000000 -32.862282
LeftShoulder -23.688791 5.638439 30.479487
LeftArm 16.438522 -28.873360 -34.241284
LeftForeArm 25.258055 -0.000000 0.719181
LeftHand -2.323099 -0.000000 -9.371410
LeftHandThumb1 -26.253704 0.000000 33.147579
Head -2.119119 3.315847 2.124021
58
root -1.327343 33.049908 -0.660136 8.029581 -3.119955 2.297684
RightUpLeg -2.446391 -8.437443 -4.730976
RightLeg -0.382736 -0.000000 0.000000
RightFoot -10.593973 -3.120620 6.337967
RightToeBase 6.193893 -0.000000 -0.000000
LeftUpLeg -2.102090 7.099383 4.901443
LeftLeg 1.396691 -0.000000 -0.000000
LeftFoot -9.442369 0.757841 -20.143045
LeftToeBase 8.389421 -0.000000 -0.000000
Spine -8.983408 -2.515618 -1.607994
RightShoulder -18.619304 -10.590980 -25.608907
RightArm 23.907509 27.413767 39.758826
RightForeArm -15.589155 -0.000000 10.195505
RightHand 10.990028 -0.000000 9.622136
RightHandThumb1 -24.326973 -0.000000 -32.862282
LeftShoulder -23.700898 5.646325 30.497266
LeftArm 16.434830 -28.848011 -34.251238
LeftForeArm 25.246817 -0.000000 0.713343
LeftHand -2.340057 -0.000000 -9.322805
LeftHandThumb1 -26.253704 0.000000 33.147579
Head -2.105114 3.327640 2.113879
59
root -1.326345 33.049781 -0.658214 8.016477 -3.130493 2.299806
RightUpLeg -2.432316 -8.438876 -4.738291
RightLeg -0.383793 -0.000000 0.000000
RightFoot -10.594836 -3.113866 6.332647
RightToeBase 6.219216 -0.000000 -0.000000
LeftUpLeg -2.083903 7.091012 4.899524
LeftLeg 1.398970 -0.000000 -0.000000
LeftFoot -9.455882 0.767113 -20.153667
LeftToeBase 8.431930 -0.000000 -0.000000
Spine -8.978765 -2.518839 -1.596404
RightShoulder -18.597907 -10.569844 -25.616202
RightArm 23.875727 27.409973 39.718494
RightForeArm -15.641302 -0.000000 10.192790
RightHand 11.229109 -0.000000 9.353917
RightHandThumb1 -24.326973 -0.000000 -32.862282
LeftShoulder -23.699419 5.643950 30.491702
LeftArm 16.410152 -28.854945 -34.238384
LeftForeArm 25.256070 -0.000000 0.713836
LeftHand -2.337614 -0.000000 -9.310512
LeftHandThumb1 -26.253704 0.000000 33.147579
Head -2.086293 3.346800 2.069005
60
root -1.323784 33.049488 -0.657302 8.013959 -3.143246 2.302883
RightUpLeg -2.432113 -8.437776 -4.747474
RightLeg -0.382754 -0.000000 0.000000
RightFoot -10.595294 -3.098680 6.345433
RightToeBase 6.216148 -0.000000 -0.000000
LeftUpLeg -2.078757 7.095375 4.890980
LeftLeg 1.402901 -0.000000 -0.000000
LeftFoot -9.462714 0.769942 -20.159386
LeftToeBase 8.422048 -0.000000 -0.000000
Spine -8.981462 -2.514655 -1.586834
RightShoulder -18.614561 -10.591023 -25.634608
RightArm 23.894754 27.436539 39.759477
RightForeArm -15.629899 -0.000000 10.244098
RightHand 10.967923 -0.000000 9.434260
RightHandThumb1 -24.326973 -0.000000 -32.862282
LeftShoulder -23.705298 5.656381 30.491795
LeftArm 16.409934 -28.875318 -34.255803
LeftForeArm 25.273137 -0.000000 0.710950
LeftHand -2.327145 -0.000000 -9.287457
LeftHandThumb1 -26.253704 0.000000 33.147579
Head -2.077936 3.374575 2.039460
61
root -1.321849 33.049473 -0.655882 8.007314 -3.163620 2.306095
RightUpLeg -2.430122 -8.428106 -4.756380
RightLeg -0.377527 -0.000000 0.000000
RightFoot -10.597572 -3.097300 6.341840
RightToeBase 6.170368 -0.000000 -0.000000
LeftUpLeg -2.063774 7.096506 4.883954
LeftLeg 1.399392 -0.000000 -0.000000
LeftFoot -9.465970 0.792139 -20.139670
LeftToeBase 8.353327 -0.000000 -0.000000
Spine -8.985154 -2.502532 -1.577126
RightShoulder -18.598527 -10.559114 -25.650627
RightArm 23.854565 27.409107 39.723167
RightForeArm -15.705572 0.000000 10.224327
RightHand 11.235175 -0.000000 9.334230
RightHandThumb1 -24.326973 -0.000000 -32.862282
LeftShoulder -23.706687 5.664760 30.485171
LeftArm 16.401738 -28.860845 -34.253320
LeftForeArm 25.234328 -0.000000 0.707147
LeftHand -2.348296 -0.000000 -9.258991
LeftHandThumb1 -26.253704 0.000000 33.147579
Head -2.050607 3.385414 1.999048
62
root -1.318650 33.049304 -0.655096 8.003831 -3.185254 2.312754
RightUpLeg -2.434108 -8.426184 -4.769706
RightLeg -0.371217 -0.000000 0.000000
RightFoot -10.595693 -3.085520 6.321851
RightToeBase 6.171275 -0.000000 -0.000000
LeftUpLeg -2.052879 7.098922 4.870811
LeftLeg 1.397880 -0.000000 -0.000000
LeftFoot -9.474264 0.803057 -20.150188
LeftToeBase 8.421264 -0.000000 -0.000000
Spine -8.987787 -2.490138 -1.567551
RightShoulder -18.596509 -10.573248 -25.661383
RightArm 23.860785 27.413143 39.713427
RightForeArm -15.620542 -0.000000 10.238592
RightHand 11.216188 -0.000000 9.331526
RightHandThumb1 -24.326973 -0.000000 -32.862282
LeftShoulder -23.714964 5.674327 30.477623
LeftArm 16.408986 -28.874894 -34.268617
LeftForeArm 25.245789 -0.000000 0.683562
LeftHand -2.341877 0.000000 -9.241218
LeftHandThumb1 -26.253704 0.000000 33.147579
Head -2.037904 3.400203 1.951872
63
root -1.316766 33.049174 -0.653935 7.995697 -3.203239 2.314815
RightUpLeg -2.432209 -8.423249 -4.777652
RightLeg -0.363369 -0.000000 0.000000
RightFoot -10.604085 -3.065208 6.329017
RightToeBase 6.186334 -0.000000 -0.000000
LeftUpLeg -2.039732 7.099764 4.865025
LeftLeg 1.398735 -0.000000 -0.000000
LeftFoot -9.489235 0.813425 -20.174156
LeftToeBase 8.428619 -0.000000 -0.000000
Spine -8.986431 -2.482681 -1.556421
RightShoulder -18.589184 -10.559680 -25.685376
RightArm 23.847929 27.391457 39.709646
RightForeArm -15.623782 0.000000 10.239465
RightHand 11.206886 -0.000000 9.333698
RightHandThumb1 -24.326973 -0.000000 -32.862282
LeftShoulder -23.725665 5.687235 30.465965
LeftArm 16.422534 -28.889297 -34.274395
LeftForeArm 25.233485 -0.000000 0.646190
LeftHand -2.366736 -0.000000 -9.176228
LeftHandThumb1 -26.253704 0.000000 33.147579
Head -2.014498 3.404330 1.912486
64
root -1.314604 33.048841 -0.653065 7.990902 -3.221564 2.317372
RightUpLeg -2.429100 -8.416590 -4.786715
RightLeg -0.366206 -0.000000 0.000000
RightFoot -10.600003 -3.052267 6.346379
RightToeBase 6.190632 -0.000000 -0.000000
LeftUpLeg -2.029173 7.112486 4.857877
LeftLeg 1.398978 -0.000000 -0.000000
LeftFoot -9.490669 0.813188 -20.161544
LeftToeBase 8.416534 -0.000000 -0.000000
Spine -8.988430 -2.470192 -1.549421
RightShoulder -18.582617 -10.565061 -25.691707
RightArm 23.844608 27.391941 39.697967
RightForeArm -15.621032 0.000000 10.234974
RightHand 11.188506 -0.000000 9.341805
RightHandThumb1 -24.326973 -0.000000 -32.862282
LeftShoulder -23.726805 5.701241 30.468371
LeftArm 16.428693 -28.903196 -34.295224
LeftForeArm 25.225569 -0.000000 0.622245
LeftHand -2.375874 0.000000 -9.211848
LeftHandThumb1 -26.253704 0.000000 33.147579
Head -2.001362 3.405948 1.887844
65
root -1.312276 33.049008 -0.652628 7.989780 -3.246606 2.317623
RightUpLeg -2.436300 -8.403040 -4.792962
RightLeg -0.360250 -0.000000 0.000000
RightFoot -10.597685 -3.047607 6.325859
RightToeBase 6.192914 -0.000000 -0.000000
LeftUpLeg -2.021786 7.116591 4.851675
LeftLeg 1.399846 -0.000000 -0.000000
LeftFoot -9.506666 0.827461 -20.161154
LeftToeBase 8.455120 -0.000000 -0.000000
Spine -8.994909 -2.457156 -1.538128
RightShoulder -18.574167 -10.575533 -25.700478
RightArm 23.849416 27.369049 39.685618
RightForeArm -15.656376 -0.000000 10.214791
RightHand 11.207285 -0.000000 9.314154
RightHandThumb1 -24.326973 -0.000000 -32.862282
LeftShoulder -23.733050 5.694562 30.474161
LeftArm 16.413545 -28.879943 -34.298698
LeftForeArm 25.223046 -0.000000 0.607150
LeftHand -2.352147 -0.000000 -9.256499
LeftHandThumb1 -26.253704 0.000000 33.147579
Head -1.980551 3.421028 1.865099
